<?xml version="1.0" encoding="UTF-8"?><svg id="uuid-646a3951-eb70-4143-b889-2d31e2d9ef6c" xmlns="http://www.w3.org/2000/svg" width="461.82" height="42.13" viewBox="0 0 461.82 42.13"><path d="m7.64,40.93c-.86,0-1.91.06-2.89.12-.99.06-1.91.12-2.66.12-.31,0-1.11,0-1.11-.61,0-.49.44-1.04,2.27-1.33,1.33-.24,2.77-.44,2.77-4V6.31c0-1.17-2.58-1.04-4.18-1.17-1.41-.12-1.84-.12-1.84-.8,0-1.04,1.66-1.04,2.4-1.04h5.6c1.54,0,3.01-.12,4.55-.19,1.54-.06,3.32-.19,5.29-.19,12.91,0,23.36,6.4,23.36,21.21,0,9.22-8.49,16.79-19.06,16.79H7.64Zm3.69-7.68c0,4.3,3.87,6.22,7.87,6.22,4.8,0,16.23-4,16.23-16.48S24.12,4.77,16.5,4.77c-5.04,0-5.16,1.11-5.16,1.97v26.5Z" fill="#fff" stroke-width="0"/><path d="m46.41,33.39c0-3.75.12-9.48.12-13.11,0-.86-1.05-.99-1.78-1.17-1.48-.37-1.85-.49-1.85-.92,0-.56.67-.56,1.54-.56s1.72.12,2.66.12,1.78-.12,2.71-.12c.8,0,.92.31.92,1.17,0,5.48-.12,10.96-.12,16.43,0,2.52,1.85,3.94,4.86,3.94,6.83,0,7.32-2.89,7.39-5.42,0-4.37.12-8.8.12-13.17,0-.74-.31-.74-3.2-1.48-.49-.12-1.78-.49-1.78-.99,0-.37.67-.49,1.33-.49,1.05,0,2.09.12,3.14.12,1.23,0,2.4-.12,3.63-.12.66-.05,1.24.44,1.29,1.11,0,.06,0,.12,0,.18,0,6.22-.24,12.43-.24,18.65,0,1.29,1.05,1.48,1.6,1.48,2.4,0,3.2,0,3.2.62,0,.49-.31.62-1.23.74-4.31.67-6.83,1.23-7.39,1.23s-.49-.44-.49-.99v-1.41c0-.49-.12-.74-.44-.74-.99,0-3.63,3.63-8.62,3.63-5.79,0-7.39-3.51-7.39-8.74Z" fill="#fff" stroke-width="0"/><path d="m77.18,5.97c0-3.26-3.02-2.22-3.02-3.38,0-.44.44-.56,1.29-.86l4.17-1.59c.34-.11.69-.15,1.04-.12.31,0,.68.19.68,1.11v25.28c0,.67.12.99.56.99.61,0,10.02-5.53,10.02-6.66,0-1.6-2.34-1.6-2.34-2.52,0-.31.49-.61.86-.61,1.29,0,3.14.12,4.73.12s3.38-.12,4.61-.12c.56,0,1.17.12,1.17.74s-2.15,1.11-3.02,1.47c-1.78.8-11.87,6.66-11.87,7.32.03.34.21.66.49.86l10.66,9.65c2.52,2.27,4.86,2.09,4.86,2.95,0,.31-.61.61-1.6.61-1.29,0-2.89-.24-4.73-.24-1.6,0-3.07.24-4.55.24-1.29,0-1.84-.06-1.84-.61s.74-.74,1.78-.86c.61-.06,1.17-.44,1.17-.86,0-.31-.31-.61-.67-.99l-9.29-8.78c-.15-.17-.34-.3-.56-.37-.24,0-.44.06-.44.31v8.74c-.09.89.47,1.72,1.33,1.97.99.31,1.78.31,1.78.86s-.8.61-1.41.61c-1.47,0-2.77-.24-4.12-.24-1.47,0-3.38.24-4.44.24-.37,0-1.47-.06-1.47-.61s.49-.68,1.11-.86c1.72-.49,3.02-.31,3.02-2.89l.05-30.87Z" fill="#fff" stroke-width="0"/><path d="m106.17,26.7c-.12.71-.17,1.43-.12,2.15,0,5.17,1.42,10.29,8.93,10.29,4.74,0,4.89-2.46,5.85-2.46.28-.03.52.17.55.45,0,.01,0,.03,0,.04,0,.44-2.59,4.93-8.99,4.93-6.78,0-10.66-4.81-10.66-12.51,0-5.77,3.55-13,11.21-13,4.99-.16,9.2,3.7,9.49,8.69,0,1.11-.19,1.42-1.23,1.42h-15.03Zm12.2-4.89c0-2.1-1.97-3.76-4.56-3.76-4.44,0-7.11,4.31-7.11,6.22,0,.44.12.56,5.36.56,5.44.02,6.3-.78,6.3-3v-.02Z" fill="#fff" stroke-width="0"/><rect x="135.89" y="0" width=".55" height="42.13" fill="#fff" stroke-width="0"/><path d="m154.1,16.87h7.36c3.41,0,5.88.5,7.4,1.49,1.52,1,2.28,2.57,2.28,4.71,0,1.45-.37,2.65-1.12,3.61-.75.96-1.82,1.57-3.22,1.81v.17c1.74.33,3.02.97,3.84,1.94.82.97,1.23,2.27,1.23,3.92,0,2.23-.78,3.97-2.33,5.23-1.55,1.26-3.72,1.89-6.49,1.89h-8.95v-24.79Zm4.05,10.24h3.9c1.7,0,2.93-.27,3.71-.8s1.17-1.45,1.17-2.74c0-1.16-.42-2.01-1.26-2.53-.84-.52-2.18-.78-4.01-.78h-3.51v6.85Zm0,3.29v7.85h4.31c1.7,0,2.98-.32,3.84-.97.86-.65,1.3-1.68,1.3-3.08,0-1.29-.44-2.24-1.32-2.87-.88-.62-2.22-.93-4.02-.93h-4.1Z" fill="#fff" stroke-width="0"/><path d="m183.44,31.76v9.9h-4.05v-24.79h7c3.2,0,5.57.6,7.1,1.8,1.54,1.2,2.31,3.01,2.31,5.43,0,3.09-1.6,5.28-4.81,6.6l7,10.97h-4.61l-5.93-9.9h-4Zm0-3.36h2.81c1.89,0,3.26-.35,4.1-1.05.85-.7,1.27-1.74,1.27-3.12s-.46-2.41-1.37-3.02c-.92-.61-2.29-.92-4.14-.92h-2.68v8.1Z" fill="#fff" stroke-width="0"/><path d="m204.14,41.66v-24.79h4.05v24.79h-4.05Z" fill="#fff" stroke-width="0"/><path d="m237.05,29.03c0,4.09-1.14,7.22-3.41,9.38-2.27,2.17-5.54,3.25-9.82,3.25h-6.93v-24.79h7.66c3.94,0,7.01,1.06,9.21,3.19s3.29,5.11,3.29,8.97Zm-4.27.14c0-5.93-2.78-8.9-8.33-8.9h-3.51v17.99h2.88c5.97,0,8.95-3.03,8.95-9.09Z" fill="#fff" stroke-width="0"/><path d="m254.82,28.21h9.12v12.45c-1.49.49-2.92.83-4.3,1.03-1.37.2-2.86.3-4.45.3-3.75,0-6.65-1.11-8.68-3.33-2.03-2.22-3.05-5.36-3.05-9.4s1.15-7.11,3.44-9.37c2.29-2.26,5.45-3.38,9.48-3.38,2.59,0,5.04.5,7.36,1.49l-1.42,3.37c-2.01-.93-4.02-1.39-6.04-1.39-2.65,0-4.74.83-6.27,2.49-1.54,1.66-2.31,3.93-2.31,6.82,0,3.03.69,5.33,2.08,6.91s3.38,2.37,5.98,2.37c1.31,0,2.71-.16,4.21-.49v-6.39h-5.14v-3.48Z" fill="#fff" stroke-width="0"/><path d="m286.2,41.66h-14.02v-24.79h14.02v3.43h-9.97v6.75h9.34v3.39h-9.34v7.78h9.97v3.44Z" fill="#fff" stroke-width="0"/><path d="m304.41,41.66l-7.19-20.7h-.14c.19,3.07.29,5.96.29,8.65v12.05h-3.68v-24.79h5.71l6.88,19.72h.1l7.09-19.72h5.73v24.79h-3.9v-12.26c0-1.23.03-2.84.09-4.82.06-1.98.12-3.18.16-3.59h-.14l-7.44,20.67h-3.58Z" fill="#fff" stroke-width="0"/><path d="m343.87,41.66l-2.48-6.88h-9.48l-2.42,6.88h-4.27l9.27-24.89h4.41l9.27,24.89h-4.31Zm-3.54-10.38l-2.32-6.75c-.17-.45-.4-1.16-.7-2.14-.3-.97-.51-1.68-.62-2.14-.31,1.39-.75,2.91-1.34,4.56l-2.24,6.46h7.22Z" fill="#fff" stroke-width="0"/><path d="m374.84,41.66h-4.97l-12.19-19.75h-.13l.08,1.1c.16,2.1.24,4.02.24,5.76v12.89h-3.68v-24.79h4.92l12.16,19.65h.1c-.02-.26-.07-1.21-.14-2.84-.07-1.63-.1-2.91-.1-3.82v-12.99h3.71v24.79Z" fill="#fff" stroke-width="0"/><path d="m395.61,41.66v-24.79h4.05v21.31h10.5v3.48h-14.55Z" fill="#fff" stroke-width="0"/><path d="m433.73,41.66l-2.48-6.88h-9.48l-2.42,6.88h-4.27l9.27-24.89h4.41l9.27,24.89h-4.31Zm-3.54-10.38l-2.32-6.75c-.17-.45-.4-1.16-.7-2.14-.3-.97-.51-1.68-.62-2.14-.31,1.39-.75,2.91-1.34,4.56l-2.24,6.46h7.22Z" fill="#fff" stroke-width="0"/><path d="m444.05,16.87h7.36c3.41,0,5.88.5,7.4,1.49,1.52,1,2.28,2.57,2.28,4.71,0,1.45-.37,2.65-1.12,3.61-.75.96-1.82,1.57-3.22,1.81v.17c1.74.33,3.02.97,3.84,1.94.82.97,1.23,2.27,1.23,3.92,0,2.23-.78,3.97-2.33,5.23-1.55,1.26-3.72,1.89-6.49,1.89h-8.95v-24.79Zm4.05,10.24h3.9c1.7,0,2.93-.27,3.71-.8s1.17-1.45,1.17-2.74c0-1.16-.42-2.01-1.26-2.53-.84-.52-2.18-.78-4.01-.78h-3.51v6.85Zm0,3.29v7.85h4.31c1.7,0,2.98-.32,3.84-.97.86-.65,1.3-1.68,1.3-3.08,0-1.29-.44-2.24-1.32-2.87-.88-.62-2.22-.93-4.02-.93h-4.1Z" fill="#fff" stroke-width="0"/></svg>